<svg xmlns="http://www.w3.org/2000/svg" viewBox="0 0 268.5 26.06"><defs><style>.a{fill:#262626;}</style></defs><title>logo</title><path class="a" d="M259.55,328.47h.72l-10.79,26.06h-.72Zm3.91,0,11.06,26.06h-3l-3.42-8.13h-1.37l3.38,8.13h-.72l-3.38-8.13H257.2l-3.35,8.13h-3l10.79-26.06Zm-5.31,15.42h9L262.59,333l-.68,1.67,3.34,8h-6.61Zm.79-1.94h5.28l-2.69-6.45Z" transform="translate(-248.76 -328.47)"/><path class="a" d="M277.91,353.85h14.36v.68H277.18V328.62h.73Zm4.25-3.76h10.11v2.5h-13v-24h2.85Z" transform="translate(-248.76 -328.47)"/><path class="a" d="M309.63,329.3H295.92v24.55h14v.68H295.2V328.62h14.43Zm-9.42,11.48h9.08v2.5h-9.08v6.81h9.69v2.5H297.36v-22h12.27v2.5h-9.42v5.74h9.08v.72h-9.08Z" transform="translate(-248.76 -328.47)"/><path class="a" d="M322.36,341.19l-9.87-12.57h.87l9.84,12.57-10.56,13.34h-.88Zm2.89-3.53,6.88-9H333l-7.33,9.57.72.95,8.06-10.52h3.49l-9.76,12.57,10.45,13.34h-3.54l-8.7-11.28-.72.91,8,10.37h-.87l-7.53-9.8-7.63,9.8h-3.54l10.56-13.34-9.84-12.57h3.54Z" transform="translate(-248.76 -328.47)"/><path class="a" d="M358.35,343.17h-6.91v-2.36h6.91v-7.4h2.51v7.4h6.91v2.36h-6.91v7.41h-2.51Z" transform="translate(-248.76 -328.47)"/><path class="a" d="M384,354.53h-.72V328.62H384Zm16.65-11.09v11.09h-.73V343.44H388.22v11.09h-2.85V328.62h2.85V339h11.66V328.62h.73v11.09H388.22V341H402V328.62h2.85v25.91H402V343.44Z" transform="translate(-248.76 -328.47)"/><path class="a" d="M418.31,328.47H419l-10.79,26.06h-.73Zm3.92,0,11,26.06h-3l-3.42-8.13h-1.37l3.39,8.13h-.73l-3.38-8.13H416l-3.34,8.13h-3l10.79-26.06Zm-5.32,15.42h9L421.35,333l-.68,1.67,3.34,8H417.4Zm.8-1.94H423l-2.7-6.45Z" transform="translate(-248.76 -328.47)"/><path class="a" d="M436.67,354.53H436V328.62h.72Zm4.18,0h-2.77V328.62h2.43l14.24,18.27V328.62h.73v19.19l1.4,1.78v-21h2.78v25.91h-2.44l-16.37-21v2.05l14.74,18.92h-.84l-13.9-17.78Z" transform="translate(-248.76 -328.47)"/><path class="a" d="M465.85,354.53h-.72V328.62h.72Zm4.18,0h-2.77V328.62h2.43l14.25,18.27V328.62h.72v19.19l1.41,1.78v-21h2.77v25.91h-2.43l-16.38-21v2.05l14.74,18.92h-.83L470,336.75Z" transform="translate(-248.76 -328.47)"/><path class="a" d="M502.29,328.47H503l-10.79,26.06h-.73Zm3.92,0,11.05,26.06h-3l-3.42-8.13h-1.37l3.38,8.13h-.72l-3.38-8.13h-8.85l-3.35,8.13h-3l10.79-26.06Zm-5.32,15.42h9L505.33,333l-.68,1.67,3.34,8h-6.61Zm.8-1.94H507l-2.7-6.45Z" transform="translate(-248.76 -328.47)"/></svg>